<svg width="200" height="65" viewBox="0 0 200 65" fill="none" xmlns="http://www.w3.org/2000/svg">
<path fill-rule="evenodd" clip-rule="evenodd" d="M3.53194 14.4928V36.9079C8.95171 37.0076 12.6851 35.7028 15.168 33.7934C17.8888 31.7009 19.3147 28.7246 19.7236 25.5099C20.1353 22.2726 19.5007 18.863 18.1628 16.0945C16.8089 13.2928 14.8651 11.3932 12.8487 10.7691C8.98209 9.57232 6.77877 10.2222 5.54734 11.1084C4.27913 12.021 3.67997 13.4399 3.53194 14.4928ZM3.53194 40.4402C9.51667 40.5384 14.0665 39.096 17.3211 36.5931C20.9152 33.8291 22.7217 29.9308 23.2273 25.9555C23.7301 22.0028 22.9614 17.907 21.3429 14.5577C19.7404 11.2416 17.1747 8.41086 13.8931 7.39513C9.28308 5.96823 5.85211 6.53768 3.48432 8.2416C1.19132 9.89171 0.223641 12.3756 0.0120959 14.1737C0.00403885 14.2422 0 14.3111 0 14.38V62.5658C0 63.5411 0.790651 64.3317 1.76597 64.3317C2.74129 64.3317 3.53194 63.5411 3.53194 62.5658V40.4402Z" fill="#9ED66A"/>
<path fill-rule="evenodd" clip-rule="evenodd" d="M154.396 0C155.372 0 156.162 0.790651 156.162 1.76597V33.3011C156.162 34.0837 155.647 34.773 154.897 34.9947C152.883 35.5896 149.735 36.0358 147.02 35.1657C145.619 34.7165 144.263 33.891 143.307 32.4928C142.353 31.0954 141.921 29.3055 142.037 27.151C142.153 25.0116 142.739 23.272 143.73 21.9231C144.723 20.5718 146.034 19.7315 147.4 19.249C149.143 18.6334 151.015 18.5812 152.63 18.778V1.76597C152.63 0.790651 153.421 0 154.396 0ZM152.63 22.3442C151.337 22.134 149.836 22.1342 148.577 22.5792C147.764 22.8662 147.083 23.3251 146.576 24.0142C146.069 24.7055 145.65 25.7474 145.564 27.3417C145.478 28.921 145.808 29.8914 146.224 30.5002C146.639 31.1082 147.263 31.5347 148.098 31.8023C149.449 32.2352 151.15 32.1822 152.63 31.9086V22.3442ZM64.8364 4.54107C65.8117 4.54107 66.6024 5.33172 66.6024 6.30704V22.8601C67.4147 21.812 68.5648 20.9393 70.1343 20.9393C72.1285 20.9393 73.4842 22.3536 74.3368 23.7387C75.2207 25.1745 75.8745 27.0536 76.3676 28.9856C77.3608 32.8772 77.8244 37.4869 77.9535 40.5427C77.9946 41.5172 77.2381 42.3405 76.2636 42.3817C75.2892 42.4229 74.4659 41.6663 74.4247 40.6918C74.3015 37.777 73.8569 33.4307 72.9454 29.859C72.4861 28.0593 71.9384 26.5799 71.3291 25.5902C70.6886 24.5497 70.2593 24.4713 70.1343 24.4713C70.0335 24.4713 69.6365 24.5208 69.0505 25.5428C68.4899 26.5206 68.0064 27.991 67.6232 29.7901C66.8635 33.3578 66.6024 37.702 66.6024 40.6173C66.6024 41.5926 65.8117 42.3833 64.8364 42.3833C63.8611 42.3833 63.0705 41.5926 63.0705 40.6173V6.30704C63.0705 5.33172 63.8611 4.54107 64.8364 4.54107ZM112.936 7.24528C116.976 6.94686 121.452 8.2446 124.317 9.4785C125.212 9.86435 125.626 10.9033 125.24 11.799C124.854 12.6948 123.815 13.1081 122.919 12.7223C120.318 11.6015 116.443 10.5278 113.196 10.7676C111.594 10.886 110.289 11.3134 109.349 12.0643C108.447 12.7838 107.71 13.9345 107.457 15.8699C107.181 17.9875 108.022 19.4841 109.75 20.8191C111.585 22.2368 114.231 23.3067 117.166 24.3916C117.497 24.5136 117.831 24.6362 118.169 24.7597C120.692 25.6826 123.363 26.6599 125.37 27.9064C126.53 28.6275 127.613 29.5208 128.339 30.6807C129.096 31.8901 129.404 33.2925 129.144 34.8528C128.29 39.9748 125.108 43.897 120.514 45.416C115.947 46.9262 110.328 45.955 104.703 42.0705C103.9 41.5163 103.699 40.4165 104.253 39.6139C104.807 38.8113 105.907 38.6099 106.709 39.1641C111.679 42.5957 116.152 43.1382 119.405 42.0626C122.632 40.9956 125 38.2324 125.66 34.2722C125.779 33.562 125.645 33.0329 125.346 32.5551C125.016 32.0279 124.427 31.4785 123.506 30.9066C121.832 29.8669 119.541 29.0262 116.949 28.0751C116.618 27.9536 116.282 27.8303 115.942 27.7045C113.075 26.645 109.918 25.4128 107.59 23.6139C105.156 21.7323 103.474 19.0978 103.955 15.413C104.308 12.7065 105.429 10.6742 107.145 9.30394C108.822 7.96513 110.895 7.39601 112.936 7.24528ZM86.192 13.6308C87.1631 13.7213 87.8769 14.582 87.7864 15.5531C87.5753 17.8172 87.3829 20.5765 87.2719 23.4622H92.5874C93.5627 23.4622 94.3533 24.2528 94.3533 25.2281C94.3533 26.2034 93.5627 26.9941 92.5874 26.9941H87.1813C87.1543 29.2427 87.1903 31.4779 87.3176 33.5325C87.4994 36.4667 87.8599 38.8737 88.4117 40.412C88.6923 41.1942 88.9555 41.5566 89.1007 41.6871C93.4501 40.4623 95.1297 37.2943 95.4152 36.1525C95.6517 35.2063 96.6105 34.631 97.5567 34.8675C98.5029 35.1041 99.0782 36.0629 98.8417 37.0091C98.2865 39.2296 95.7654 43.4887 90.0361 45.0929C88.7884 45.4423 87.6287 45.1115 86.7423 44.3162C85.9575 43.6121 85.4463 42.6058 85.0872 41.6046C84.3592 39.5752 83.9785 36.7538 83.7924 33.7509C83.6601 31.6151 83.6223 29.307 83.6492 26.9941H79.2165C78.2411 26.9941 77.4505 26.2034 77.4505 25.2281C77.4505 24.2528 78.2411 23.4622 79.2165 23.4622H83.7374C83.8508 20.4427 84.0515 17.5662 84.2697 15.2253C84.3602 14.2541 85.2209 13.5403 86.192 13.6308ZM44.882 21.2477C45.0193 21.5203 45.2937 21.8398 45.8809 22.103C47.1519 22.6727 48.0359 22.7806 48.6203 22.7214C49.1737 22.6653 49.5596 22.4511 49.8642 22.1498C50.4555 21.565 50.8106 20.5625 50.9244 19.6073C50.4411 18.829 49.9573 18.2841 49.5072 17.9177C48.4124 17.0266 47.4182 17.1 46.5838 17.5636C45.6283 18.0944 44.9066 19.1478 44.7498 20.1236C44.6758 20.5843 44.7371 20.96 44.882 21.2477ZM54.175 18.1624C53.4444 16.8906 52.627 15.9031 51.7368 15.1784C49.4415 13.3102 46.8722 13.3629 44.8685 14.4761C42.9858 15.5221 41.5947 17.496 41.2626 19.5634C41.0922 20.6243 41.1925 21.7741 41.7276 22.8364C42.2703 23.914 43.1942 24.7692 44.4361 25.3259C46.0915 26.068 47.6063 26.3742 48.9765 26.2353C50.3779 26.0933 51.5025 25.497 52.3478 24.661C52.5079 24.5027 52.6569 24.3371 52.7954 24.1658C52.9619 24.7626 53.1211 25.4076 53.271 26.1042C54.3104 30.9345 54.2506 34.34 53.6701 36.5839C53.095 38.8073 52.0653 39.7412 51.1942 40.0668C50.2954 40.4027 49.1046 40.2661 47.8686 39.4227C46.6405 38.5846 45.4747 37.0998 44.8242 35.0399C44.5305 34.1098 43.5385 33.594 42.6085 33.8877C41.6784 34.1814 41.1625 35.1734 41.4562 36.1034C42.3194 38.8369 43.9288 41.0101 45.8778 42.3401C47.819 43.6647 50.2075 44.2061 52.4307 43.3752C54.6815 42.534 56.3166 40.4563 57.0895 37.4685C57.8571 34.5012 57.8289 30.496 56.7239 25.3612C56.1118 22.5168 55.3088 20.2375 54.348 18.4719C54.3007 18.3626 54.2426 18.259 54.175 18.1624ZM32.7967 16.146C33.772 16.146 34.5627 16.9366 34.5627 17.912V31.7874C34.5627 32.7627 33.772 33.5534 32.7967 33.5534C31.8214 33.5534 31.0307 32.7627 31.0307 31.7874V17.912C31.0307 16.9366 31.8214 16.146 32.7967 16.146ZM164.457 18.6416C165.267 17.9485 166.305 17.4074 167.515 17.4074C170.484 17.4074 172.531 19.3128 173.795 21.228C175.066 23.1541 175.779 25.4086 176.062 26.9209C176.159 27.4373 176.021 27.9699 175.685 28.3742C175.35 28.7785 174.852 29.0123 174.326 29.0123H164.034C164.038 30.8071 164.467 32.3059 165.261 33.2719C166.033 34.2122 167.399 34.9463 169.993 34.5869C171.942 34.1959 173.341 33.8342 174.287 33.5473C174.765 33.4026 175.119 33.2794 175.365 33.1842C175.585 33.099 175.68 33.0513 175.692 33.0457C175.695 33.0444 175.693 33.0453 175.688 33.0482C176.525 32.5464 177.61 32.8176 178.111 33.6539C178.613 34.4903 178.342 35.575 177.506 36.0768C177.092 36.3251 176.339 36.6161 175.312 36.9274C174.227 37.2562 172.699 37.6477 170.636 38.0602C170.616 38.0643 170.595 38.068 170.575 38.0714C170.563 38.0733 170.551 38.0751 170.54 38.0767C166.983 38.5848 164.262 37.6192 162.532 35.5142C160.895 33.5219 160.411 30.8216 160.516 28.3391C160.523 28.1661 160.533 27.9927 160.546 27.8193C160.484 27.6396 160.451 27.4469 160.451 27.2464C160.451 26.8943 160.554 26.5663 160.732 26.2908C161.037 24.4708 161.631 22.7093 162.425 21.2556C162.971 20.2567 163.648 19.3344 164.457 18.6416ZM164.523 25.4804H171.996C171.706 24.7046 171.324 23.8956 170.847 23.1735C169.891 21.7249 168.784 20.9393 167.515 20.9393C167.4 20.9393 167.146 20.9896 166.755 21.3243C166.363 21.6594 165.933 22.2014 165.525 22.9488C165.123 23.6841 164.779 24.5513 164.523 25.4804ZM135.475 17.6597C136.45 17.6597 137.241 18.4503 137.241 19.4256V33.3011C137.241 34.2764 136.45 35.0671 135.475 35.0671C134.5 35.0671 133.709 34.2764 133.709 33.3011V19.4256C133.709 18.4503 134.5 17.6597 135.475 17.6597ZM197.694 30.7357C198.274 31.5192 198.11 32.6252 197.327 33.2061C138.18 77.0558 73.5965 67.6887 43.2873 50.7361C36.2015 46.7728 29.5478 43.668 23.9517 41.7041C18.2601 39.7067 13.9642 39.0012 11.438 39.493C10.4807 39.6794 9.55349 39.0544 9.36711 38.0971C9.18072 37.1397 9.8057 36.2125 10.763 36.0262C14.2916 35.3392 19.3749 36.3548 25.1213 38.3714C30.9633 40.4216 37.8067 43.6238 45.0114 47.6536C74.2406 64.0021 137.311 73.3038 195.223 30.3688C196.007 29.788 197.113 29.9522 197.694 30.7357Z" fill="#9ED66A"/>
<path fill-rule="evenodd" clip-rule="evenodd" d="M185.453 29.3781C185.591 28.4126 186.486 27.7418 187.451 27.8798L197.023 29.2481C197.956 29.3815 198.62 30.224 198.532 31.1623L197.536 41.7052C197.445 42.6762 196.583 43.3891 195.612 43.2974C194.641 43.2058 193.928 42.3443 194.02 41.3733L194.857 32.5063L186.951 31.3762C185.986 31.2382 185.315 30.3436 185.453 29.3781Z" fill="#EE795F"/>
<path d="M35.5717 11.3527C35.5717 12.746 34.4422 13.8755 33.0489 13.8755C31.6556 13.8755 30.5261 12.746 30.5261 11.3527C30.5261 9.95935 31.6556 8.82985 33.0489 8.82985C34.4422 8.82985 35.5717 9.95935 35.5717 11.3527Z" fill="#9ED66A"/>
<path d="M137.998 12.8663C137.998 14.2597 136.868 15.3892 135.475 15.3892C134.082 15.3892 132.952 14.2597 132.952 12.8663C132.952 11.473 134.082 10.3435 135.475 10.3435C136.868 10.3435 137.998 11.473 137.998 12.8663Z" fill="#9ED66A"/>
</svg>
